<svg width="20" height="15" viewBox="0 0 20 15" fill="none" xmlns="http://www.w3.org/2000/svg">
<path d="M19.2856 6.16077V6.69648C19.2856 7.14028 18.9258 7.50005 18.482 7.50005H18.2142L17.3399 13.6201C17.2268 14.4119 16.5487 15 15.7489 15H3.5367C2.73691 15 2.05884 14.4119 1.9457 13.6201L1.07142 7.50005H0.803566C0.359763 7.50005 0 7.14028 0 6.69648V6.16077C0 5.71697 0.359763 5.3572 0.803566 5.3572H3.05827L6.63347 0.441353C6.98152 -0.0371705 7.65156 -0.143007 8.13015 0.205038C8.60871 0.553082 8.71451 1.22316 8.36647 1.70171L5.7079 5.3572H13.5777L10.9191 1.70168C10.5711 1.22316 10.6769 0.553049 11.1555 0.205004C11.634 -0.14304 12.3041 -0.0372374 12.6522 0.44132L16.2273 5.3572H18.482C18.9258 5.3572 19.2856 5.71697 19.2856 6.16077ZM10.4464 12.0536V8.30361C10.4464 7.85981 10.0866 7.50005 9.6428 7.50005C9.19899 7.50005 8.83923 7.85981 8.83923 8.30361V12.0536C8.83923 12.4974 9.19899 12.8572 9.6428 12.8572C10.0866 12.8572 10.4464 12.4974 10.4464 12.0536ZM14.1963 12.0536V8.30361C14.1963 7.85981 13.8366 7.50005 13.3928 7.50005C12.949 7.50005 12.5892 7.85981 12.5892 8.30361V12.0536C12.5892 12.4974 12.949 12.8572 13.3928 12.8572C13.8366 12.8572 14.1963 12.4974 14.1963 12.0536ZM6.69639 12.0536V8.30361C6.69639 7.85981 6.33662 7.50005 5.89282 7.50005C5.44902 7.50005 5.08925 7.85981 5.08925 8.30361V12.0536C5.08925 12.4974 5.44902 12.8572 5.89282 12.8572C6.33662 12.8572 6.69639 12.4974 6.69639 12.0536Z" fill="white"/>
</svg>
