<svg width="64" height="25" viewBox="0 0 64 25" fill="none" xmlns="http://www.w3.org/2000/svg">
<path d="M63.8889 0H0V25H63.8889V0Z" fill="#333333"/>
<path d="M49.109 13.8021C47.906 13.8021 45.9725 13.5851 45.414 14.7136C45.1562 15.408 45.1132 18.1858 45.1132 19.9653C45.1132 20.8768 45.1992 21.9619 43.7813 21.9185C42.4924 21.8751 42.6642 20.8768 42.6642 20.0087C42.6213 18.8803 42.6642 17.7084 42.6642 16.5799C42.6213 14.0192 43.008 11.632 46.7029 11.2848C49.4097 11.0244 53.4484 11.1112 55.8974 11.0678C58.0027 11.0244 58.5613 10.4601 58.5613 8.02957C58.5613 5.51221 57.4442 5.12158 55.3389 5.12158C51.9876 5.12158 47.863 5.16498 44.5117 5.12158C43.7813 5.12158 42.7931 5.29519 42.7502 4.07992C42.6642 2.69103 43.7813 2.90804 44.5547 2.90804C48.2497 2.86464 51.9876 2.86464 55.6826 2.90804C58.862 2.95144 60.3658 4.21012 60.7095 7.0313C61.1392 10.6771 60.5377 13.5417 57.2723 13.6719" fill="white"/>
<path d="M17.7446 11.2848C20.5373 12.0226 21.6114 14.0191 21.5685 16.7969C21.5685 18.099 21.5685 19.4011 21.5255 20.7032C21.4825 21.5278 21.0529 22.0486 20.1506 21.9618C19.3343 21.9184 19.1195 21.3108 19.1195 20.6164C19.1195 19.4011 19.1195 18.1858 19.0765 16.9271C18.9906 14.4098 18.3031 13.6719 15.8541 13.6285C13.4481 13.5851 10.9991 13.6285 8.59304 13.5851C4.98398 13.4983 3.30835 11.7622 3.30835 8.24656C3.30835 4.73093 5.02695 2.99482 8.59304 2.95142C12.288 2.90802 16.026 2.95142 19.721 2.95142C20.4943 2.95142 21.4396 2.86461 21.4396 4.03649C21.4396 5.16496 20.5373 5.16496 19.7639 5.16496C16.2838 5.16496 12.7606 5.16496 9.28048 5.16496C7.94857 5.16496 6.61665 5.25177 6.14404 6.81427C5.71439 8.28996 5.58549 9.80906 7.08927 10.8941C10.6124 11.2848 14.1785 10.6337 17.7446 11.2848Z" fill="white"/>
<path d="M37.0359 19.7482C38.0241 19.7482 39.0123 19.7482 40.0434 19.7916C40.7309 19.835 41.3324 19.9652 41.3324 20.8767C41.3324 21.7447 40.7738 22.0052 40.0864 22.0052C39.356 22.0052 28.5718 22.0052 27.068 22.0052C24.8768 22.0052 23.6738 20.3125 23.2871 18.1857C22.7715 15.4513 23.8886 13.3246 24.8338 12.4566C25.1775 12.1093 26.0798 11.5451 27.4117 11.3281C28.4858 11.2413 33.7276 11.2847 36.7351 11.1979C38.4108 11.0677 38.8404 9.89579 38.8834 8.5069C38.9693 7.16142 38.9263 5.77253 38.9263 4.38364C38.9263 3.55899 39.1841 2.99475 40.1294 2.99475C41.0746 2.99475 41.3753 3.51558 41.3753 4.34024C41.3753 4.42704 41.3753 4.47045 41.3753 4.55725C41.5902 11.9791 39.9575 13.585 35.8758 13.6284C34.458 13.6284 30.3333 13.585 28.8296 13.6284C27.4547 13.6284 25.9079 13.8454 25.5642 15.4513C25.2205 17.0573 25.2205 19.7048 27.4977 19.7048" fill="white"/>
</svg>
