<svg width="115" height="45" viewBox="0 0 115 45" fill="none" xmlns="http://www.w3.org/2000/svg">
<path d="M115 0H0V45H115V0Z" fill="#333333"/>
<path d="M88.3961 24.8438C86.2307 24.8438 82.7505 24.4531 81.7451 26.4844C81.2811 27.7344 81.2038 32.7344 81.2038 35.9375C81.2038 37.5781 81.3584 39.5313 78.8063 39.4531C76.4862 39.375 76.7956 37.5781 76.7956 36.0156C76.7182 33.9844 76.7956 31.875 76.7956 29.8438C76.7182 25.2344 77.4143 20.9375 84.0652 20.3125C88.9375 19.8438 96.2071 20 100.615 19.9219C104.405 19.8438 105.41 18.8281 105.41 14.4531C105.41 9.92188 103.399 9.21875 99.61 9.21875C93.5777 9.21875 86.1533 9.29688 80.121 9.21875C78.8063 9.21875 77.0276 9.53125 76.9502 7.34375C76.7956 4.84375 78.8063 5.23438 80.1984 5.23438C86.8494 5.15625 93.5777 5.15625 100.229 5.23438C105.952 5.3125 108.658 7.57813 109.277 12.6563C110.05 19.2188 108.968 24.375 103.09 24.6094" fill="white"/>
<path d="M31.9401 20.3125C36.967 21.6406 38.9005 25.2344 38.8231 30.2344C38.8231 32.5781 38.8231 34.9219 38.7458 37.2656C38.6685 38.75 37.8951 39.6875 36.271 39.5312C34.8016 39.4531 34.4149 38.3594 34.4149 37.1094C34.4149 34.9219 34.4149 32.7344 34.3376 30.4687C34.1829 25.9375 32.9455 24.6094 28.5373 24.5312C24.2065 24.4531 19.7983 24.5312 15.4674 24.4531C8.97108 24.2969 5.95494 21.1719 5.95494 14.8437C5.95494 8.51562 9.04842 5.39062 15.4674 5.31249C22.1184 5.23437 28.8467 5.31249 35.4976 5.31249C36.8897 5.31249 38.5911 5.15624 38.5911 7.26562C38.5911 9.29687 36.967 9.29687 35.575 9.29687C29.3107 9.29687 22.9691 9.29687 16.7048 9.29687C14.3073 9.29687 11.9099 9.45312 11.0592 12.2656C10.2858 14.9219 10.0538 17.6562 12.7606 19.6094C19.1022 20.3125 25.5212 19.1406 31.9401 20.3125Z" fill="white"/>
<path d="M66.6644 35.5469C68.4432 35.5469 70.2219 35.5469 72.078 35.625C73.3154 35.7031 74.3981 35.9375 74.3981 37.5781C74.3981 39.1406 73.3927 39.6094 72.1553 39.6094C70.8406 39.6094 51.429 39.6094 48.7223 39.6094C44.7781 39.6094 42.6126 36.5625 41.9166 32.7344C40.9886 27.8125 42.9993 23.9844 44.7007 22.4219C45.3194 21.7969 46.9435 20.7813 49.3409 20.3906C51.2744 20.2344 60.7095 20.3125 66.1231 20.1562C69.1392 19.9219 69.9126 17.8125 69.9899 15.3125C70.1446 12.8906 70.0672 10.3906 70.0672 7.89063C70.0672 6.40625 70.5313 5.39062 72.2327 5.39062C73.9341 5.39062 74.4755 6.32812 74.4755 7.8125C74.4755 7.96875 74.4755 8.04687 74.4755 8.20312C74.8621 21.5625 71.9233 24.4531 64.5763 24.5312C62.0242 24.5312 54.5999 24.4531 51.8931 24.5312C49.4183 24.5312 46.6342 24.9219 46.0155 27.8125C45.3968 30.7031 45.3968 35.4688 49.4956 35.4688" fill="white"/>
</svg>
