<svg width="50" height="20" viewBox="0 0 50 20" fill="none" xmlns="http://www.w3.org/2000/svg">
<path d="M50 0H0V19.5652H50V0Z" fill="#333333"/>
<path d="M38.433 10.8016C37.4916 10.8016 35.9784 10.6318 35.5413 11.5149C35.3396 12.0584 35.3059 14.2323 35.3059 15.625C35.3059 16.3383 35.3732 17.1875 34.2636 17.1535C33.2548 17.1196 33.3893 16.3383 33.3893 15.659C33.3557 14.7758 33.3893 13.8587 33.3893 12.9755C33.3557 10.9715 33.6583 9.10326 36.5501 8.83152C38.6684 8.62771 41.8291 8.69565 43.7458 8.66168C45.3934 8.62771 45.8305 8.18614 45.8305 6.28396C45.8305 4.31385 44.9562 4.00815 43.3086 4.00815C40.6859 4.00815 37.4579 4.04212 34.8352 4.00815C34.2636 4.00815 33.4902 4.14402 33.4566 3.19293C33.3893 2.10597 34.2636 2.27581 34.8688 2.27581C37.7605 2.24184 40.6859 2.24184 43.5776 2.27581C46.0659 2.30978 47.2427 3.29483 47.5117 5.50271C47.848 8.35597 47.3772 10.5978 44.8217 10.6997" fill="white"/>
<path d="M13.887 8.83151C16.0726 9.40896 16.9133 10.9715 16.8796 13.1454C16.8796 14.1644 16.8796 15.1834 16.846 16.2024C16.8124 16.8478 16.4761 17.2554 15.77 17.1875C15.1311 17.1535 14.963 16.678 14.963 16.1345C14.963 15.1834 14.963 14.2323 14.9294 13.2473C14.8621 11.2772 14.3241 10.6997 12.4075 10.6658C10.5246 10.6318 8.60794 10.6658 6.72496 10.6318C3.90048 10.5639 2.58911 9.20516 2.58911 6.4538C2.58911 3.70244 3.9341 2.34374 6.72496 2.30977C9.61668 2.27581 12.542 2.30977 15.4338 2.30977C16.039 2.30977 16.7788 2.24184 16.7788 3.15896C16.7788 4.04211 16.0726 4.04211 15.4674 4.04211C12.7438 4.04211 9.98656 4.04211 7.26295 4.04211C6.22058 4.04211 5.17822 4.11005 4.80834 5.33287C4.4721 6.48776 4.37122 7.67662 5.54809 8.52581C8.30532 8.83151 11.0962 8.322 13.887 8.83151Z" fill="white"/>
<path d="M28.9845 15.4552C29.7579 15.4552 30.5312 15.4552 31.3382 15.4891C31.8762 15.5231 32.347 15.625 32.347 16.3383C32.347 17.0177 31.9098 17.2215 31.3719 17.2215C30.8002 17.2215 22.3604 17.2215 21.1835 17.2215C19.4687 17.2215 18.5272 15.8967 18.2246 14.2323C17.8211 12.0924 18.6953 10.428 19.4351 9.74864C19.7041 9.4769 20.4102 9.03533 21.4525 8.86549C22.2932 8.79755 26.3954 8.83152 28.7491 8.76359C30.0605 8.66168 30.3967 7.74457 30.4304 6.65761C30.4976 5.60462 30.464 4.51766 30.464 3.43071C30.464 2.78533 30.6657 2.34375 31.4055 2.34375C32.1452 2.34375 32.3806 2.75136 32.3806 3.39674C32.3806 3.46467 32.3806 3.49864 32.3806 3.56658C32.5487 9.375 31.271 10.6318 28.0766 10.6658C26.967 10.6658 23.739 10.6318 22.5622 10.6658C21.4862 10.6658 20.2757 10.8356 20.0067 12.0924C19.7377 13.3492 19.7377 15.4212 21.5198 15.4212" fill="white"/>
</svg>
