<svg width="15" height="15" viewBox="0 0 15 15" fill="none" xmlns="http://www.w3.org/2000/svg">
<path d="M14.4546 0.721005L11.4078 0.0178946C11.0767 -0.0582757 10.7369 0.114572 10.6021 0.425113L9.19591 3.70629C9.07287 3.9934 9.1549 4.3303 9.39806 4.52659L11.1734 5.97968C10.1187 8.22671 8.27601 10.0958 5.98211 11.171L4.52902 9.39563C4.3298 9.15247 3.99583 9.07044 3.70872 9.19348L0.427542 10.5997C0.114072 10.7374 -0.0587756 11.0772 0.0173946 11.4083L0.720505 14.4551C0.793745 14.7715 1.07499 15 1.40604 15C8.90881 15 14.9995 8.92103 14.9995 1.40654C14.9995 1.07842 14.7739 0.794245 14.4546 0.721005Z" fill="white"/>
</svg>
