<svg width="83" height="49" viewBox="0 0 83 49" fill="none" xmlns="http://www.w3.org/2000/svg">
<path d="M70.576 18.0288H17.644V33.6538H70.576V18.0288Z" fill="#4EDEA3"/>
<path d="M38.2286 6.00964H8.82202V36.0577H38.2286V6.00964Z" fill="url(#paint0_radial_15_86)"/>
<path d="M48.5209 17.1274H19.1143V47.1755H48.5209V17.1274Z" fill="url(#paint1_radial_15_86)"/>
<path d="M38.2286 18.0288H0V48.0769H38.2286V18.0288Z" fill="url(#paint2_radial_15_86)"/>
<path d="M64.6943 18.0288H35.2878V48.0769H64.6943V18.0288Z" fill="url(#paint3_radial_15_86)"/>
<path d="M76.457 18.0288H47.0505V48.0769H76.457V18.0288Z" fill="url(#paint4_radial_15_86)"/>
<path d="M82.3385 10.5168H52.9319V40.5649H82.3385V10.5168Z" fill="url(#paint5_radial_15_86)"/>
<path d="M76.4569 0H35.2878V36.0577H76.4569V0Z" fill="url(#paint6_radial_15_86)"/>
<path d="M58.8134 7.51196H32.3474V28.5456H58.8134V7.51196Z" fill="url(#paint7_radial_15_86)"/>
<path d="M25.1533 25.5854L23.6064 24.5944V25.7864L25.1533 26.7774L28.8557 23.9895C28.7247 23.6942 28.5608 23.4177 28.3687 23.1643L25.1533 25.5854Z" fill="white"/>
<path d="M29.2165 25.702C29.2165 25.4481 29.1943 25.1995 29.1512 24.9579L28.2766 25.6165C28.2775 25.6448 28.2779 25.6732 28.2779 25.7015C28.2779 27.4618 26.8762 28.8942 25.1534 28.8942C23.4307 28.8942 22.0289 27.4618 22.0289 25.7015C22.0289 23.9412 23.4307 22.5089 25.1534 22.5089C25.8065 22.5089 26.413 22.7148 26.915 23.0663L27.705 22.471C27.0076 21.8948 26.1198 21.5498 25.1534 21.5498C22.9096 21.5498 21.0903 23.4087 21.0903 25.7015C21.0903 27.9943 22.9096 29.8532 25.1534 29.8532C27.3973 29.8537 29.2165 27.9948 29.2165 25.702Z" fill="white"/>
<path d="M37.0971 28.1171C36.7941 28.4887 35.9976 28.8956 34.9506 28.8956C32.9769 28.8869 31.6614 27.6927 31.6614 25.6938C31.6614 23.8275 32.9598 22.5095 34.9681 22.5095C35.9203 22.5095 36.6212 22.81 36.9764 23.0669V24.6061C36.6127 24.0578 35.8768 23.5271 34.9681 23.5271C33.6436 23.5271 32.83 24.4028 32.83 25.703C32.83 26.9059 33.5484 27.8523 34.942 27.8789C35.9981 27.8789 36.7425 27.3835 37.0976 26.7559V28.1171H37.0971Z" fill="white"/>
<path d="M40.9403 25.2868H39.0532V28.7983H38.0403V24.3757H41.9527V28.7983H40.9403V25.2868Z" fill="white"/>
<path d="M43.2859 24.6852C43.5714 24.464 44.0909 24.287 44.8353 24.287C46.0992 24.287 46.7223 24.7292 46.7223 25.8789V28.7976H45.7701V28.0016C45.5622 28.5146 45.0342 28.8683 44.3419 28.8683C43.4677 28.8683 42.9482 28.3641 42.9482 27.4975C42.9482 26.4891 43.6666 26.206 44.7311 26.206H45.7095V26.0115C45.7095 25.3834 45.4154 25.189 44.8353 25.189C44.0388 25.189 43.58 25.5073 43.2859 25.9761V24.6852ZM45.7095 27.241V26.8781H44.8524C44.2552 26.8781 43.9692 26.9933 43.9692 27.391C43.9692 27.7273 44.2117 27.9393 44.6616 27.9393C45.3462 27.9397 45.6664 27.5419 45.7095 27.241Z" fill="white"/>
<path d="M49.8992 28.8957C48.5141 28.8957 47.5969 28.1172 47.5969 26.5693C47.5969 25.048 48.5318 24.2874 49.9083 24.2782C50.4885 24.2869 51.0078 24.464 51.2933 24.6851V25.9765C50.999 25.5077 50.5405 25.1893 49.9083 25.1806C49.0772 25.1806 48.6273 25.6315 48.6273 26.5252V26.6578C48.6273 27.5689 49.1117 27.9933 49.9256 27.9933C50.644 27.9933 51.1204 27.6836 51.3369 27.2946V28.3562C51.1457 28.6035 50.6002 28.8957 49.8992 28.8957Z" fill="white"/>
<path d="M52.2708 24.3757H53.2747V27.3743L55.352 24.3757H56.313V28.7983H55.3091V25.7644L53.2747 28.7364L53.2315 28.7983H52.2708V24.3757Z" fill="white"/>
<path d="M61.3596 23.0046C61.1867 23.1018 60.6932 23.1812 59.9833 23.2431C58.5982 23.3757 58.2869 23.9331 58.1745 25.198C58.5121 24.7025 59.0403 24.3754 59.8193 24.3754C60.8838 24.3754 61.7668 24.9236 61.7668 26.5247C61.7668 28.0901 60.9531 28.8865 59.5857 28.8865C58.1139 28.8865 57.2917 27.9933 57.2917 25.9499C57.2917 23.5088 57.9495 22.527 59.4384 22.2793C60.1051 22.1641 61.0052 22.1288 61.36 21.943V23.0046H61.3596ZM59.5157 27.9492C60.1994 27.9492 60.7103 27.5776 60.7103 26.6137C60.7103 25.6939 60.2862 25.2957 59.5593 25.2957C58.7973 25.2957 58.3298 25.7113 58.3298 26.5339C58.3298 27.3565 58.7282 27.9492 59.5157 27.9492Z" fill="white"/>
<path d="M62.3979 26.5693C62.3979 25.0393 63.3067 24.2782 64.6571 24.2782C65.9984 24.2869 66.8735 25.0654 66.8735 26.6046C66.8735 28.1346 65.9643 28.8865 64.6226 28.8957C63.2722 28.8957 62.3979 28.1172 62.3979 26.5693ZM63.4277 26.5959C63.4277 27.5689 63.8782 27.9933 64.6397 27.9933C65.4104 27.9933 65.8429 27.5423 65.8429 26.6046V26.578C65.8429 25.6049 65.3841 25.1806 64.6222 25.1806C63.8515 25.1893 63.4277 25.6407 63.4277 26.5693V26.5959Z" fill="white"/>
<defs>
<radialGradient id="paint0_radial_15_86" cx="0" cy="0" r="1" gradientUnits="userSpaceOnUse" gradientTransform="translate(23.5253 21.0337) scale(14.7033 15.024)">
<stop offset="0.15" stop-color="#42E3B4"/>
<stop offset="1" stop-color="#42E3B4" stop-opacity="0"/>
</radialGradient>
<radialGradient id="paint1_radial_15_86" cx="0" cy="0" r="1" gradientUnits="userSpaceOnUse" gradientTransform="translate(33.8175 32.1515) scale(14.7033 15.024)">
<stop offset="0.01" stop-color="#A0E720"/>
<stop offset="1" stop-color="#A0E720" stop-opacity="0"/>
</radialGradient>
<radialGradient id="paint2_radial_15_86" cx="0" cy="0" r="1" gradientUnits="userSpaceOnUse" gradientTransform="translate(19.1143 33.0529) scale(19.1143 15.024)">
<stop offset="0.1" stop-color="#FAED00"/>
<stop offset="1" stop-color="#FAED00" stop-opacity="0"/>
</radialGradient>
<radialGradient id="paint3_radial_15_86" cx="0" cy="0" r="1" gradientUnits="userSpaceOnUse" gradientTransform="translate(49.9912 33.0529) scale(14.7033 15.024)">
<stop offset="0.15" stop-color="#00D900"/>
<stop offset="1" stop-color="#00D900" stop-opacity="0"/>
</radialGradient>
<radialGradient id="paint4_radial_15_86" cx="0" cy="0" r="1" gradientUnits="userSpaceOnUse" gradientTransform="translate(61.754 33.0529) scale(14.7033 15.024)">
<stop offset="0.15" stop-color="#21A038"/>
<stop offset="1" stop-color="#21A038" stop-opacity="0"/>
</radialGradient>
<radialGradient id="paint5_radial_15_86" cx="0" cy="0" r="1" gradientUnits="userSpaceOnUse" gradientTransform="translate(67.6352 25.5409) scale(14.7033 15.0241)">
<stop offset="0.15" stop-color="#21A038"/>
<stop offset="1" stop-color="#21A038" stop-opacity="0"/>
</radialGradient>
<radialGradient id="paint6_radial_15_86" cx="0" cy="0" r="1" gradientUnits="userSpaceOnUse" gradientTransform="translate(55.8725 18.0288) scale(20.5846 18.0288)">
<stop offset="0.2" stop-color="#0087CD"/>
<stop offset="0.9" stop-color="#0087CD" stop-opacity="0"/>
</radialGradient>
<radialGradient id="paint7_radial_15_86" cx="0" cy="0" r="1" gradientUnits="userSpaceOnUse" gradientTransform="translate(45.5804 18.0288) scale(13.233 10.5168)">
<stop offset="0.1" stop-color="#01A7FA"/>
<stop offset="1" stop-color="#00ADEE" stop-opacity="0"/>
</radialGradient>
</defs>
</svg>
