<svg width="114" height="66" viewBox="0 0 114 66" fill="none" xmlns="http://www.w3.org/2000/svg">
<path d="M97.1302 24.4519H24.5445V45.5769H97.1302V24.4519Z" fill="#4EDEA3"/>
<path d="M52.7722 8.2019H12.4469V48.8269H52.7722V8.2019Z" fill="url(#paint0_radial_13_251)"/>
<path d="M66.8861 23.2332H26.5608V63.8582H66.8861V23.2332Z" fill="url(#paint1_radial_13_251)"/>
<path d="M52.7722 24.4519H0.349304V65.0769H52.7722V24.4519Z" fill="url(#paint2_radial_13_251)"/>
<path d="M89.0648 24.4519H48.7397V65.0769H89.0648V24.4519Z" fill="url(#paint3_radial_13_251)"/>
<path d="M105.195 24.4519H64.8698V65.0769H105.195V24.4519Z" fill="url(#paint4_radial_13_251)"/>
<path d="M113.26 14.2957H72.9348V54.9207H113.26V14.2957Z" fill="url(#paint5_radial_13_251)"/>
<path d="M105.195 0.0769043H48.7397V48.8269H105.195V0.0769043Z" fill="url(#paint6_radial_13_251)"/>
<path d="M81 10.2332H44.7071V38.6707H81V10.2332Z" fill="url(#paint7_radial_13_251)"/>
<path d="M34.8421 34.6683L32.7209 33.3286V34.9402L34.8421 36.2799L39.9192 32.5107C39.7395 32.1115 39.5147 31.7376 39.2514 31.395L34.8421 34.6683Z" fill="white"/>
<path d="M40.4138 34.826C40.4138 34.4828 40.3834 34.1466 40.3242 33.82L39.1249 34.7104C39.1261 34.7487 39.1267 34.7871 39.1267 34.8254C39.1267 37.2053 37.2045 39.1419 34.8421 39.1419C32.4797 39.1419 30.5575 37.2053 30.5575 34.8254C30.5575 32.4455 32.4797 30.509 34.8421 30.509C35.7377 30.509 36.5694 30.7873 37.2577 31.2626L38.3411 30.4577C37.3848 29.6787 36.1673 29.2123 34.8421 29.2123C31.7651 29.2123 29.2704 31.7255 29.2704 34.8254C29.2704 37.9253 31.7651 40.4385 34.8421 40.4385C37.9192 40.4391 40.4138 37.9259 40.4138 34.826Z" fill="white"/>
<path d="M51.2206 38.0912C50.8051 38.5936 49.7128 39.1438 48.2771 39.1438C45.5705 39.132 43.7666 37.5174 43.7666 34.8149C43.7666 32.2917 45.5472 30.5098 48.3011 30.5098C49.6069 30.5098 50.568 30.916 51.055 31.2633V33.3443C50.5563 32.6031 49.5472 31.8855 48.3011 31.8855C46.4848 31.8855 45.3692 33.0695 45.3692 34.8273C45.3692 36.4537 46.3543 37.7332 48.2654 37.7692C49.7135 37.7692 50.7343 37.0994 51.2213 36.2508V38.0912H51.2206Z" fill="white"/>
<path d="M56.491 34.2648H53.9032V39.0122H52.5142V33.033H57.8793V39.0122H56.491V34.2648Z" fill="white"/>
<path d="M59.7072 33.4514C60.0988 33.1525 60.8111 32.9131 61.8319 32.9131C63.565 32.9131 64.4196 33.511 64.4196 35.0654V39.0115H63.1138V37.9353C62.8287 38.6288 62.1047 39.107 61.1553 39.107C59.9566 39.107 59.2442 38.4253 59.2442 37.2537C59.2442 35.8903 60.2293 35.5076 61.6891 35.5076H63.0307V35.2446C63.0307 34.3955 62.6274 34.1325 61.8319 34.1325C60.7397 34.1325 60.1105 34.5629 59.7072 35.1968V33.4514ZM63.0307 36.9069V36.4163H61.8553C61.0365 36.4163 60.6443 36.572 60.6443 37.1098C60.6443 37.5644 60.9768 37.851 61.5937 37.851C62.5326 37.8516 62.9716 37.3138 63.0307 36.9069Z" fill="white"/>
<path d="M68.7761 39.1437C66.8768 39.1437 65.6191 38.0912 65.6191 35.9984C65.6191 33.9416 66.901 32.9133 68.7887 32.9009C69.5842 32.9126 70.2964 33.152 70.6879 33.451V35.197C70.2843 34.5631 69.6556 34.1327 68.7887 34.1209C67.649 34.1209 67.032 34.7306 67.032 35.9388V36.1181C67.032 37.3499 67.6962 37.9237 68.8124 37.9237C69.7976 37.9237 70.4509 37.505 70.7477 36.979V38.4143C70.4855 38.7486 69.7375 39.1437 68.7761 39.1437Z" fill="white"/>
<path d="M72.0283 33.033H73.405V37.087L76.2536 33.033H77.5715V39.0122H76.1948V34.9105L73.405 38.9285L73.3458 39.0122H72.0283V33.033Z" fill="white"/>
<path d="M84.4917 31.1791C84.2546 31.3107 83.5779 31.418 82.6044 31.5017C80.7051 31.681 80.2781 32.4346 80.124 34.1446C80.587 33.4747 81.3113 33.0325 82.3795 33.0325C83.8392 33.0325 85.0501 33.7737 85.0501 35.9384C85.0501 38.0547 83.9344 39.1315 82.0593 39.1315C80.041 39.1315 78.9135 37.9239 78.9135 35.1612C78.9135 31.8608 79.8155 30.5334 81.8572 30.1985C82.7714 30.0429 84.0058 29.9951 84.4923 29.7439V31.1791H84.4917ZM81.9633 37.8643C82.9008 37.8643 83.6013 37.3619 83.6013 36.0587C83.6013 34.8151 83.0198 34.2767 82.023 34.2767C80.9781 34.2767 80.337 34.8387 80.337 35.9508C80.337 37.0629 80.8834 37.8643 81.9633 37.8643Z" fill="white"/>
<path d="M85.9158 35.9984C85.9158 33.9298 87.1619 32.9009 89.0138 32.9009C90.8531 32.9126 92.0531 33.9652 92.0531 36.0462C92.0531 38.1148 90.8064 39.1314 88.9665 39.1437C87.1146 39.1437 85.9158 38.0912 85.9158 35.9984ZM87.3279 36.0344C87.3279 37.3499 87.9456 37.9237 88.9899 37.9237C90.0467 37.9237 90.6398 37.314 90.6398 36.0462V36.0102C90.6398 34.6946 90.0107 34.1209 88.9659 34.1209C87.909 34.1327 87.3279 34.743 87.3279 35.9984V36.0344Z" fill="white"/>
<defs>
<radialGradient id="paint0_radial_13_251" cx="0" cy="0" r="1" gradientUnits="userSpaceOnUse" gradientTransform="translate(32.6095 28.5144) scale(20.1626 20.3125)">
<stop offset="0.15" stop-color="#42E3B4"/>
<stop offset="1" stop-color="#42E3B4" stop-opacity="0"/>
</radialGradient>
<radialGradient id="paint1_radial_13_251" cx="0" cy="0" r="1" gradientUnits="userSpaceOnUse" gradientTransform="translate(46.7234 43.5456) scale(20.1626 20.3125)">
<stop offset="0.01" stop-color="#A0E720"/>
<stop offset="1" stop-color="#A0E720" stop-opacity="0"/>
</radialGradient>
<radialGradient id="paint2_radial_13_251" cx="0" cy="0" r="1" gradientUnits="userSpaceOnUse" gradientTransform="translate(26.5607 44.7644) scale(26.2115 20.3125)">
<stop offset="0.1" stop-color="#FAED00"/>
<stop offset="1" stop-color="#FAED00" stop-opacity="0"/>
</radialGradient>
<radialGradient id="paint3_radial_13_251" cx="0" cy="0" r="1" gradientUnits="userSpaceOnUse" gradientTransform="translate(68.9024 44.7644) scale(20.1626 20.3125)">
<stop offset="0.15" stop-color="#00D900"/>
<stop offset="1" stop-color="#00D900" stop-opacity="0"/>
</radialGradient>
<radialGradient id="paint4_radial_13_251" cx="0" cy="0" r="1" gradientUnits="userSpaceOnUse" gradientTransform="translate(85.0327 44.7644) scale(20.1626 20.3125)">
<stop offset="0.15" stop-color="#21A038"/>
<stop offset="1" stop-color="#21A038" stop-opacity="0"/>
</radialGradient>
<radialGradient id="paint5_radial_13_251" cx="0" cy="0" r="1" gradientUnits="userSpaceOnUse" gradientTransform="translate(93.0974 34.6081) scale(20.1627 20.3125)">
<stop offset="0.15" stop-color="#21A038"/>
<stop offset="1" stop-color="#21A038" stop-opacity="0"/>
</radialGradient>
<radialGradient id="paint6_radial_13_251" cx="0" cy="0" r="1" gradientUnits="userSpaceOnUse" gradientTransform="translate(76.9674 24.4519) scale(28.2277 24.375)">
<stop offset="0.2" stop-color="#0087CD"/>
<stop offset="0.9" stop-color="#0087CD" stop-opacity="0"/>
</radialGradient>
<radialGradient id="paint7_radial_13_251" cx="0" cy="0" r="1" gradientUnits="userSpaceOnUse" gradientTransform="translate(62.8535 24.4519) scale(18.1464 14.2188)">
<stop offset="0.1" stop-color="#01A7FA"/>
<stop offset="1" stop-color="#00ADEE" stop-opacity="0"/>
</radialGradient>
</defs>
</svg>
