<svg width="9" height="9" viewBox="0 0 9 9" fill="none" xmlns="http://www.w3.org/2000/svg">
<path d="M3.61326 1.34714C3.89237 0.488131 5.10763 0.488132 5.38674 1.34714C5.64543 2.14332 6.38738 2.68237 7.22453 2.68237C8.12775 2.68237 8.50328 3.83816 7.77257 4.36905C7.0953 4.86112 6.8119 5.73333 7.07059 6.52951C7.3497 7.38851 6.36653 8.10283 5.63582 7.57193C4.95855 7.07987 4.04145 7.07987 3.36418 7.57193C2.63347 8.10283 1.6503 7.38851 1.92941 6.52951C2.1881 5.73333 1.9047 4.86112 1.22743 4.36905C0.496718 3.83816 0.872255 2.68237 1.77547 2.68237C2.61262 2.68237 3.35457 2.14332 3.61326 1.34714Z" fill="white" stroke="#F38219"/>
</svg>
